<?xml version="1.0" encoding="UTF-8"?>
<svg id="Capa_1" data-name="Capa 1" xmlns="http://www.w3.org/2000/svg" viewBox="0 0 841.89 276.44">
  <defs>
    <style>
      .cls-1 {
        fill: #eb5d80;
      }

      .cls-2 {
        fill: #ffffff;
      }

      .cls-3 {
        fill: #02838d;
      }
    </style>
  </defs>
  <path class="cls-2" d="M142.17,105.45l-24.91,65.54h9.14l6.31-17.48h29.07l6.34,17.48h9.67l-25.43-65.54h-10.19ZM135.33,145.89l11.71-32.82,11.99,32.82h-23.7ZM235.96,149.8v-44.35h-3.4l-28.39,44.72v2.05h29.09v18.78h2.7v-18.78h9.14v-2.42h-9.14ZM233.26,149.8h-25.95l25.95-41v41ZM184.84,170.99h8.45v-65.54h-8.45v65.54Z"/>
  <rect class="cls-2" x="285.54" y="70.95" width="2.14" height="134.54"/>
  <g>
    <path class="cls-2" d="M525.48,138.63c.97-.85,1.46-1.93,1.46-3.24-.08-4.64-.94-8.79-2.56-12.45-1.63-3.67-3.78-6.84-6.47-9.53-2.69-2.68-5.78-4.72-9.28-6.1-3.5-1.38-7.12-2.07-10.86-2.07-5.05,0-9.83,1.32-14.35,3.97-4.52,2.65-8.18,6.47-10.99,11.48-2.81,5-4.21,11.05-4.21,18.13,0,6.35,1.34,11.95,4.03,16.79,2.69,4.84,6.47,8.65,11.36,11.42,4.88,2.77,10.62,4.15,17.22,4.15,4.4,0,8.53-.94,12.39-2.81,3.87-1.87,6.98-4.07,9.34-6.6,1.3-1.14,1.95-2.4,1.95-3.78,0-1.14-.41-2.12-1.22-2.93-.81-.81-1.79-1.22-2.93-1.22-1.06,0-2.12.37-3.18,1.1-1.06,1.14-2.34,2.26-3.85,3.36-1.51,1.1-3.32,2.01-5.44,2.75-2.12.73-4.6,1.1-7.44,1.1-4.56,0-8.55-1.04-11.97-3.11-3.42-2.07-6.09-4.9-8-8.48-1.66-3.11-2.6-6.65-2.82-10.62h44.39c1.3,0,2.45-.43,3.42-1.28M484.03,119.88c1.91-1.87,4.07-3.25,6.47-4.15,2.4-.9,4.82-1.34,7.26-1.34,3.01,0,5.88.65,8.61,1.95,2.73,1.3,5.05,3.16,6.96,5.56,1.91,2.4,2.99,5.27,3.23,8.61v.98h-38.36c.29-1.53.67-2.97,1.18-4.27,1.18-3.01,2.73-5.45,4.64-7.33"/>
    <path class="cls-2" d="M601.55,138.2c0,6.35-1.4,12.01-4.21,16.97-2.81,4.96-6.59,8.88-11.35,11.72-4.76,2.85-10.12,4.27-16.06,4.27s-11.32-1.42-16.12-4.27c-4.8-2.85-8.61-6.76-11.41-11.72-2.81-4.96-4.21-10.62-4.21-16.97s1.41-12.01,4.21-16.97c2.81-4.96,6.61-8.87,11.41-11.72,4.8-2.85,10.18-4.27,16.12-4.27s11.3,1.43,16.06,4.27c4.76,2.85,8.55,6.76,11.35,11.72,2.81,4.97,4.21,10.62,4.21,16.97M591.66,138.2c0-4.72-.96-8.85-2.87-12.39-1.92-3.54-4.52-6.35-7.82-8.42-3.3-2.07-6.98-3.11-11.05-3.11s-7.88,1.04-11.17,3.11c-3.29,2.07-5.92,4.88-7.88,8.42-1.95,3.54-2.93,7.67-2.93,12.39s.98,8.75,2.93,12.33c1.96,3.58,4.58,6.41,7.88,8.49,3.3,2.07,7.02,3.11,11.17,3.11s7.75-1.04,11.05-3.11c3.3-2.08,5.9-4.91,7.82-8.49,1.91-3.58,2.87-7.69,2.87-12.33"/>
    <path class="cls-2" d="M612.54,159.93c-.65-1.06-.96-2.18-.92-3.36.04-1.18.71-2.22,2.01-3.11.9-.57,1.89-.81,2.99-.73,1.1.08,2.1.61,2.99,1.59,2.28,2.69,4.88,4.82,7.81,6.41,2.93,1.59,6.51,2.38,10.74,2.38,1.87-.08,3.8-.41,5.8-.98,1.99-.57,3.66-1.57,5-2.99,1.34-1.42,2.02-3.32,2.02-5.68s-.69-4.09-2.07-5.43c-1.39-1.34-3.2-2.44-5.44-3.3-2.24-.85-4.62-1.61-7.14-2.26-2.69-.73-5.33-1.55-7.94-2.44-2.61-.9-4.94-2.06-7.02-3.48-2.07-1.42-3.74-3.21-5.01-5.37-1.26-2.16-1.89-4.82-1.89-8,0-3.66,1-6.84,2.99-9.52,1.99-2.69,4.66-4.76,8-6.22,3.34-1.47,7.04-2.2,11.11-2.2,2.28,0,4.66.27,7.15.79,2.48.53,4.9,1.43,7.26,2.69,2.36,1.26,4.43,2.99,6.22,5.19.73.81,1.14,1.83,1.22,3.05.08,1.22-.45,2.32-1.59,3.3-.9.65-1.89.96-2.99.92-1.1-.04-2.01-.43-2.75-1.16-1.79-2.12-3.97-3.73-6.53-4.82-2.56-1.1-5.39-1.65-8.48-1.65-1.87,0-3.74.31-5.62.92-1.87.61-3.44,1.57-4.7,2.87-1.26,1.3-1.89,3.14-1.89,5.49.08,2.2.81,3.99,2.2,5.37,1.38,1.38,3.25,2.5,5.62,3.36,2.36.85,4.96,1.69,7.82,2.5,2.61.65,5.11,1.41,7.51,2.26,2.4.85,4.58,1.97,6.53,3.36,1.96,1.39,3.5,3.16,4.64,5.31,1.14,2.16,1.71,4.87,1.71,8.12,0,3.74-1.06,6.98-3.17,9.7-2.12,2.73-4.9,4.8-8.36,6.23-3.46,1.42-7.19,2.14-11.17,2.14-4.48,0-8.91-.83-13.31-2.5-4.39-1.67-8.18-4.58-11.35-8.73"/>
    <path class="cls-2" d="M702.04,105.23c4.23,0,8.02.45,11.36,1.34,3.34.9,5.98,2.12,7.94,3.66,1.95,1.55,2.93,3.29,2.93,5.25,0,1.14-.37,2.2-1.1,3.17-.74.98-1.75,1.47-3.05,1.47-1.06,0-1.93-.22-2.63-.67-.69-.45-1.34-.98-1.95-1.59-.61-.61-1.45-1.2-2.5-1.77-.98-.49-2.4-.92-4.27-1.28-1.87-.37-3.75-.55-5.62-.55-4.48,0-8.4,1.06-11.78,3.18s-6.04,4.97-8,8.55-2.93,7.65-2.93,12.21.94,8.63,2.81,12.21c1.87,3.58,4.48,6.43,7.82,8.55,3.34,2.12,7.2,3.18,11.6,3.18,2.85,0,5.11-.25,6.78-.73,1.67-.49,3.11-1.06,4.33-1.71,1.38-.81,2.46-1.63,3.24-2.44.77-.81,1.85-1.22,3.23-1.22s2.46.45,3.24,1.34c.77.9,1.16,1.99,1.16,3.3,0,1.55-1.02,3.14-3.05,4.76-2.04,1.63-4.8,2.99-8.3,4.09-3.5,1.1-7.41,1.65-11.72,1.65-6.19,0-11.6-1.44-16.24-4.33-4.64-2.89-8.24-6.84-10.81-11.84-2.56-5.01-3.85-10.6-3.85-16.79s1.32-11.76,3.97-16.73c2.64-4.96,6.33-8.91,11.05-11.84,4.72-2.93,10.17-4.4,16.36-4.4"/>
    <path class="cls-3" d="M378.91,110.52c-5.34-3.45-11.53-5.28-17.9-5.28s-12.57,1.83-17.91,5.29c-1.09.71-1.79,1.86-1.93,3.16-.14,1.33.32,2.64,1.26,3.58l1.79,1.79c.85.85,1.97,1.29,3.09,1.29.78,0,1.56-.21,2.27-.64,3.44-2.13,7.39-3.25,11.44-3.25s7.99,1.12,11.43,3.24c1.71,1.06,3.91.79,5.35-.64l1.79-1.79c.94-.94,1.4-2.25,1.26-3.58-.14-1.3-.84-2.45-1.93-3.16"/>
    <path class="cls-1" d="M355.94,159.74c-9.98-2.36-16.95-11.18-16.95-21.43,0-4.07,1.13-8.05,3.27-11.51,1.01-1.65.76-3.76-.62-5.14l-1.79-1.79c-.91-.91-2.16-1.35-3.44-1.22-1.25.13-2.36.81-3.04,1.86-3.44,5.31-5.25,11.47-5.25,17.8,0,15.39,10.92,28.91,25.96,32.16.29.06.57.09.86.09.93,0,1.84-.32,2.58-.92,1-.81,1.58-2.01,1.58-3.3v-2.5c0-1.94-1.33-3.67-3.15-4.1"/>
    <path class="cls-3" d="M415.94,105.4c-18.14,0-32.91,14.76-32.91,32.91l.02.14-.02.16c-.14,10.32-7.6,19.28-17.72,21.29-1.38.27-2.38,1.49-2.38,2.9v5.02c0,.88.38,1.71,1.06,2.28.66.56,1.52.8,2.36.66,15.98-2.61,27.58-16.27,27.58-32.46,0-12.15,9.88-22.03,22.03-22.03s22.03,9.88,22.03,22.03-9.88,22.03-22.03,22.03c-3,0-5.44,2.44-5.44,5.44s2.44,5.44,5.44,5.44c18.14,0,32.91-14.76,32.91-32.9s-14.76-32.91-32.91-32.91"/>
  </g>
</svg>
