<svg xmlns="http://www.w3.org/2000/svg" xmlns:xlink="http://www.w3.org/1999/xlink" xml:space="preserve" width="1500px" height="600px" style="shape-rendering:geometricPrecision; text-rendering:geometricPrecision; image-rendering:optimizeQuality; fill-rule:evenodd; clip-rule:evenodd" viewBox="0 0 1500 714.918"><defs><style type="text/css"><![CDATA[ .fil0 {fill:#00583C} ]]></style></defs><g id="Warstwa_x0020_1"><metadata id="CorelCorpID_0Corel-Layer"/><path class="fil0" d="M1386.28 175.356l-634.437 0c-14.1105,-22.6904 -30.7948,-43.741 -49.7768,-62.7218l0 -1.60896 -1.5402 0c-25.3663,-25.0443 -59.1097,-46.5864 -63.1481,-49.2119 -66.1288,-41.771 -145.888,-61.8131 -233.346,-61.8131 -223.123,0 -404.033,159.996 -404.033,357.429 0,197.416 180.91,357.489 404.033,357.489 14.1357,0 28.5968,-1.57916 42.6064,-2.83172 13.9821,-1.29381 27.8886,-3.03914 41.5945,-5.57405 13.5547,-2.53835 26.8813,-5.88232 39.9661,-9.94482 12.9244,-3.99947 25.6207,-8.78395 38.0626,-14.0979 12.3067,-5.25203 24.383,-11.1183 36.2336,-17.3398 11.634,-6.10808 23.0938,-12.6344 34.227,-19.7017 10.9281,-6.87703 21.5525,-14.2079 31.7265,-22.1713 10.0949,-7.84883 19.6845,-16.305 28.7458,-25.4018 9.17473,-9.15181 17.671,-18.9064 25.7204,-29.0174 7.42252,-9.30995 14.9436,-18.6268 21.6075,-28.4421 5.55113,-8.18804 9.96889,-16.988 14.2961,-25.8591 6.3602,-11.2363 12.0133,-22.8669 17.0751,-34.7977 12.2551,7.20135 22.8944,17.7501 31.5133,31.3632l5.76772 -2.14069c-4.75697,-33.3607 -11.8357,-66.46 -13.6165,-99.7267l586.722 0c62.77,0 113.719,-52.3759 113.719,-116.941 0,-64.5657 -50.9492,-116.938 -113.719,-116.938zm-635.69 106.729l0 32.6226 -38.8556 0 0 51.0764 -34.8057 0 0 -93.1259c0,-31.8273 15.8352,-46.834 48.8646,-46.834l24.7967 0 0 32.6742 -24.2169 0c-9.58957,0 -14.6388,4.78333 -14.6388,14.3866l0 9.19994 38.8556 0zm-188.556 -16.1904l0 -40.0704 34.4287 0 0 43.8429c0,11.6363 5.1615,17.8452 14.185,17.8452 9.03492,0 14.0073,-6.20893 14.0073,-17.8452l0 -43.8429 34.6533 0 0 40.0704c0,26.1742 -10.4227,43.223 -31.4469,51.4133l0 48.4762 -34.6304 0 0 -48.64c-21.2133,-8.41723 -31.197,-25.2391 -31.197,-51.2494zm-233.457 5.45602l-48.5999 0 45.5321 -76.1929 41.2691 0 -4.0774 11.9079c-17.4166,16.7966 -29.6832,39.1146 -34.1239,64.285zm21.0368 91.164l-33.6827 0 14.272 -41.7229c3.7485,15.3458 10.4135,29.454 19.4106,41.7229zm-22.0338 -84.4164c-0.556947,4.663 -0.921369,9.38215 -0.921369,14.1964 0,5.61072 0.516838,11.0805 1.26058,16.4815l-18.3735 53.7385 -84.0497 0 50.4415 -84.4164 51.6425 0zm-13.7197 90.4924l40.4738 0c9.08534,10.8215 20.0157,19.9573 32.3579,26.7713l-7.10508 61.9838 -96.0768 0 30.3502 -88.7551zm57.9156 -169.387l1.38778 -4.04531 3.92384 0c-1.82899,1.26173 -3.54681,2.67472 -5.31162,4.04531zm20.6586 199.005c14.6009,6.99965 30.8063,11.0266 47.9673,11.0266l48.9047 0 6.97788 48.1106 -110.616 0 6.76587 -59.1372zm100.481 -222.852l-31.3987 0 -8.43098 -58.1826 18.338 0 21.4917 58.1826zm-15.0685 -58.1826l18.9167 0 35.0716 58.1826 -32.4966 0 -21.4917 -58.1826zm11.6982 120.477c12.5714,-7.98863 30.8063,-11.8265 55.0484,-11.8265l3.58463 0 0 32.8496c-2.57387,-0.175335 -5.19932,-0.175335 -7.79955,-0.175335 -31.032,0 -47.2224,13.5913 -47.2224,37.1917 0,23.8146 16.1904,37.469 47.2224,37.469 2.60023,0 5.22567,0 7.79955,-0.226904l0 32.8518 -3.58463 0c-24.2421,0 -42.4769,-3.83789 -55.0484,-11.8529 -20.6322,-13.1994 -32.0668,-34.2007 -32.0668,-58.2411 0,-23.9923 11.4346,-44.8136 32.0668,-58.0394zm5.85711 171.584l83.8721 0 17.7684 48.1106 -94.6626 0 -6.97788 -48.1106zm106.765 -233.879l-56.7902 -58.1826 57.8503 0 92.7305 58.1826 -93.7905 0zm-8.41952 0l-54.9842 0 -35.0705 -58.1826 33.2644 0 56.7902 58.1826zm-93.7516 -64.3308l-49.9762 -82.914 80.9303 82.914 -30.9541 0zm-6.92975 0l-17.4911 0 -27.6754 -74.9449 45.1666 74.9449zm-23.9143 0l-16.9605 0 -10.9567 -75.6004 27.9172 75.6004zm-13.7311 64.3308l-15.0192 0c-7.77319,0 -15.371,0.815939 -22.7145,2.34812l6.9286 -60.5307 22.3615 0 8.44359 58.1826zm-43.9931 3.97655c-8.55819,2.32176 -16.7737,5.54082 -24.4209,9.73511l-11.7612 0 24.5847 -71.8943 18.7276 0 -7.1303 62.1592zm-42.5675 9.73511l-39.7151 0 42.9697 -71.8943 21.3279 0 -24.5824 71.8943zm-46.7583 0l-60.729 0 70.0802 -71.8943 33.607 0 -42.9583 71.8943zm-69.1577 0l-117.039 0 121.569 -71.8943 65.549 0 -70.079 71.8943zm2.49938 6.08974l63.0106 0 -45.5333 76.1929 -91.7473 0 74.2699 -76.1929zm13.4527 82.9404l-50.4438 84.4164 -126.137 0 82.2826 -84.4164 94.2982 0zm-47.0368 90.4924l85.6025 0 -30.3525 88.7551 -108.292 0 53.0417 -88.7551zm59.6059 94.7131l97.4405 0 -10.0594 87.8314 -117.405 0 30.0236 -87.8314zm103.522 0l112.155 0 12.7353 87.8314 -134.947 0 10.0571 -87.8314zm118.252 0l96 0 32.4336 87.8314 -115.699 0 -12.7341 -87.8314zm82.4705 -54.0685l87.0774 0 29.0025 48.1106 -98.3103 0 -17.7696 -48.1106zm158.86 -233.879l-37.2776 0 -92.7213 -58.1826 83.432 0c17.6321,17.6871 33.214,37.21 46.5669,58.1826zm-195.269 -147.744c54.4055,16.8505 103.02,45.7682 142.468,83.4137l-86.9903 0 -147.466 -92.5288c31.8411,0.428597 62.7115,3.10217 91.9879,9.11513zm44.1329 83.4137l-54.0662 0 -85.41 -87.5186 139.476 87.5186zm-147.339 0l-20.7721 0 9.16097 -80.0674 11.6111 80.0674zm-26.8446 0l-17.3249 0 26.0585 -76.1997 -8.73352 76.1997zm-23.7 0l-19.7636 0 46.1785 -77.2666 -26.4149 77.2666zm-26.816 0l-31.2864 0 80.8685 -82.9633 -49.582 82.9633zm-39.7289 0l-61.1312 0 144.324 -85.355 -83.1925 85.355zm80.6794 -90.8706l-153.637 90.8706 -61.4212 0c56.451,-49.7287 131.477,-82.9507 215.058,-90.8706zm-221.735 97.0188l57.699 0 -112.961 66.8096c15.0926,-24.4083 33.7457,-46.8214 55.2615,-66.8096zm-61.7879 77.984l120.837 0 -74.2561 76.1929 -76.414 0c6.29717,-26.7965 16.4437,-52.3289 29.8333,-76.1929zm-37.3808 141.219c0,-19.9137 2.17049,-39.3759 6.13329,-58.2789l71.2525 0 -76.5779 78.565c-0.47902,-6.71316 -0.807917,-13.4641 -0.807917,-20.2862zm1.83013 32.2135l124.207 0 -53.0417 88.7551 -46.0134 0c-12.9484,-27.8336 -21.6178,-57.6165 -25.152,-88.7551zm28.0032 94.7131l39.6028 0 -20.1681 33.7514c-7.20478,-10.857 -13.7036,-22.1163 -19.4347,-33.7514zm23.1454 39.3266l23.4983 -39.3266 109.821 0 -30.0339 87.8314 -61.9666 0c-15.4467,-14.931 -29.2901,-31.1741 -41.3184,-48.5048zm47.7301 54.4547l53.5208 0 -11.3441 33.175c-15.0444,-10.0594 -29.1148,-21.1812 -42.1767,-33.175zm47.4012 36.5786l12.5061 -36.5786 118.768 0 -10.009 87.3891c-44.3334,-10.1431 -85.2988,-27.6204 -121.265,-50.8105zm211.563 60.9284c-29.0632,0 -57.2819,-3.12967 -84.3534,-8.89052l10.1465 -88.6164 136.486 0 13.0986 90.3732c-24.3303,4.59538 -49.5064,7.13373 -75.3781,7.13373zm81.2844 -8.38858l-12.9095 -89.1184 117.038 0 15.7996 42.768c-35.9024,21.5089 -76.3613,37.4197 -119.928,46.3504zm125.243 -49.4216l-14.664 -39.6968 67.0731 0c-15.9773,14.6628 -33.5303,27.9482 -52.4092,39.6968zm76.39 -63.9492c-5.61875,6.32352 -11.5996,12.3766 -17.7306,18.3025l-75.5213 0 -32.445 -87.8314 99.6992 0 33.8225 56.113c-4.75697,8.3267 -7.82476,13.416 -7.82476,13.416zm-19.0691 -69.529l14.2835 0c-3.16635,2.64492 -6.3602,5.27381 -9.48643,7.96342l-4.79708 -7.96342zm30.2493 50.1756l-21.9467 -36.409c8.78395,-2.38822 17.6951,-3.71871 26.3644,-3.71871 5.52821,0 10.8765,0.686443 16.1159,1.70178 -7.65859,15.1396 -14.8806,28.3573 -20.5337,38.4259zm-8.85958 -56.1336l-24.9744 0 -29.0025 -48.1106 109.507 0c-17.0396,17.2447 -36.472,32.4886 -55.5297,48.1106zm136.021 -91.5616l-34.8688 0 0 -33.8626c0,-15.5727 -5.94535,-19.1814 -22.7557,-19.1814l-3.22938 0 0 -31.4366 5.19932 0c11.4208,0 16.9846,-4.63206 16.9846,-13.2132 0,-7.62421 -5.56374,-13.0367 -12.7846,-13.0367 -9.39934,0 -15.0055,6.82661 -15.0055,19.4083l0 91.0929 -34.8298 0 0 -91.4837c0,-30.6401 20.3675,-50.846 50.0255,-50.846 28.0192,0 49.0537,19.0187 49.0537,40.6365 0,13.9959 -8.18804,25.6184 -22.8268,30.4155 18.2234,2.03068 25.0374,10.6129 25.0374,29.0632l0 42.4437zm134.505 -18.856c-13.6051,13.8331 -31.6039,21.2877 -50.8621,21.2877 -19.2066,0 -37.0129,-7.61963 -50.6054,-21.2877 -13.8068,-13.9959 -21.2007,-31.589 -21.2007,-51.238 0,-19.5734 7.39387,-37.1917 21.2007,-51.2506 13.5925,-13.5913 31.3987,-21.0001 50.6054,-21.0001 19.2582,0 37.257,7.40877 50.8621,21.1754 13.6051,13.6567 20.8614,31.6509 20.8614,51.0752 0,19.4095 -7.25635,37.6443 -20.8614,51.238zm150.329 19.7636l-36.6966 0 0 -85.0478c0,-15.473 -7.2724,-23.511 -20.0283,-23.511 -12.5829,0 -19.8507,8.03791 -19.8507,23.511l0 85.0478 -36.8788 0 0 -83.0286c0,-37.6077 23.4479,-59.9325 56.7295,-59.9325 33.2667,0 56.7249,22.3249 56.7249,59.9325l0 83.0286zm104.548 -109.052c-2.60252,-0.165021 -5.02627,-0.165021 -7.19332,-0.165021 -24.0553,0 -38.4419,6.602 -44.8537,22.0109l52.047 0 0 31.2085 -52.6555 0c4.59538,15.41 20.0054,23.26 46.0421,23.26 2.00547,0 4.37879,0 6.61346,-0.229196l0 32.0588 -3.61213 0c-24.2409,0 -42.454,-3.83789 -55.0243,-11.8529 -20.6552,-13.1994 -32.0302,-34.2007 -32.0302,-58.2411 0,-23.9923 11.375,-44.8136 32.0302,-58.0394 12.5703,-7.98863 30.7833,-11.8265 55.0243,-11.8265l3.61213 0 0 31.8159zm105.68 0.85834l-30.0362 0 0 107.286 -34.7943 0 0 -107.286 -30.0488 0 0 -32.6742 94.8792 0 0 32.6742zm-411.419 -0.617684c-19.9767,0 -36.2187,16.4173 -36.2187,37.6317 0,21.0001 16.4196,37.822 36.2187,37.822 19.8541,0 36.0457,-16.5927 36.0457,-37.822 0,-21.2144 -16.0013,-37.6317 -36.0457,-37.6317z"/></g></svg>