<svg width="276" height="39" viewBox="0 0 276 39" fill="none" xmlns="http://www.w3.org/2000/svg">
<g clip-path="url(#clip0_1_349)">
<path d="M80.7701 38.0901C80.6084 37.913 80.5223 37.6798 80.5301 37.4401V11.7301C80.5202 11.478 80.6059 11.2316 80.7701 11.0401C80.8512 10.9559 80.9494 10.8901 81.058 10.8469C81.1667 10.8038 81.2833 10.7844 81.4001 10.7901H97.5801C97.7105 10.7717 97.8434 10.7829 97.9689 10.8227C98.0945 10.8626 98.2095 10.9301 98.3055 11.0203C98.4014 11.1105 98.4759 11.2211 98.5235 11.344C98.571 11.4668 98.5903 11.5988 98.5801 11.7301V13.1501C98.5838 13.2675 98.5625 13.3844 98.5177 13.493C98.4729 13.6016 98.4055 13.6995 98.3201 13.7801C98.1286 13.9442 97.8821 14.03 97.6301 14.0201H84.1601V22.8001H96.7201C96.9734 22.793 97.2201 22.8823 97.4101 23.0501C97.4964 23.1421 97.563 23.2508 97.606 23.3694C97.649 23.488 97.6674 23.6141 97.6601 23.7401V25.0801C97.6648 25.1997 97.6451 25.3191 97.6021 25.4309C97.5591 25.5426 97.4938 25.6445 97.4101 25.7301C97.2201 25.8979 96.9734 25.9872 96.7201 25.9801H84.1601V35.0801H97.9001C98.0267 35.0747 98.1531 35.0949 98.2716 35.1396C98.3902 35.1843 98.4985 35.2525 98.5901 35.3401C98.6756 35.4306 98.7418 35.5376 98.7848 35.6544C98.8278 35.7713 98.8466 35.8957 98.8401 36.0201V37.4401C98.8434 37.5613 98.8211 37.6819 98.7746 37.794C98.7281 37.906 98.6584 38.0069 98.5701 38.0901C98.3867 38.2568 98.1479 38.3494 97.9001 38.3501H81.4001C81.2826 38.3538 81.1658 38.3326 81.0571 38.2877C80.9485 38.2429 80.8507 38.1755 80.7701 38.0901Z" fill="#868686"/>
<path d="M105.4 38.0901C105.315 38.005 105.248 37.9035 105.203 37.7917C105.159 37.68 105.137 37.5604 105.14 37.4401V11.7301C105.13 11.4781 105.216 11.2316 105.38 11.0401C105.467 10.9523 105.572 10.8844 105.687 10.8412C105.803 10.798 105.927 10.7806 106.05 10.7901H107.9C108.107 10.7722 108.315 10.8193 108.494 10.9251C108.674 11.0309 108.815 11.1899 108.9 11.3801L117.29 27.4801L125.75 11.3801C125.834 11.1899 125.976 11.0309 126.156 10.9251C126.335 10.8193 126.543 10.7722 126.75 10.7901H128.6C128.723 10.7819 128.846 10.8 128.962 10.8431C129.077 10.8862 129.182 10.9533 129.27 11.0401C129.43 11.2331 129.513 11.4794 129.5 11.7301V37.4401C129.506 37.5602 129.486 37.6802 129.443 37.7925C129.4 37.9048 129.334 38.0069 129.249 38.0924C129.165 38.1779 129.063 38.245 128.952 38.2893C128.84 38.3337 128.72 38.3544 128.6 38.3501H126.79C126.672 38.3558 126.555 38.3355 126.446 38.2905C126.337 38.2456 126.239 38.1772 126.16 38.0901C125.998 37.913 125.912 37.6798 125.92 37.4401V17.8701L119.19 30.8701C119.091 31.1205 118.916 31.3338 118.69 31.4807C118.465 31.6276 118.199 31.7008 117.93 31.6901H116.75C116.483 31.6924 116.22 31.6159 115.996 31.47C115.772 31.3242 115.596 31.1155 115.49 30.8701L108.79 17.8701V37.4401C108.796 37.5602 108.776 37.6802 108.733 37.7925C108.69 37.9048 108.624 38.0069 108.539 38.0924C108.455 38.1779 108.353 38.245 108.242 38.2893C108.13 38.3337 108.01 38.3544 107.89 38.3501H106.12C105.988 38.3645 105.855 38.3486 105.73 38.3035C105.605 38.2585 105.492 38.1855 105.4 38.0901Z" fill="#868686"/>
<path d="M137.39 38.0901C137.229 37.913 137.142 37.6797 137.15 37.4401V11.7301C137.14 11.478 137.226 11.2316 137.39 11.0401C137.47 10.9543 137.568 10.8873 137.677 10.8441C137.786 10.8008 137.903 10.7824 138.02 10.7901H148.02C150.534 10.6425 153.018 11.4018 155.02 12.9301C155.886 13.7111 156.564 14.6784 157.002 15.7593C157.441 16.8401 157.628 18.0063 157.55 19.1701C157.628 20.3326 157.438 21.4975 156.996 22.5756C156.554 23.6537 155.871 24.6164 155 25.3901C152.995 26.9108 150.513 27.6661 148 27.5201H140.91V37.4401C140.913 37.5604 140.891 37.68 140.847 37.7917C140.802 37.9034 140.735 38.0049 140.65 38.0901C140.566 38.1761 140.464 38.2436 140.352 38.2883C140.241 38.3331 140.121 38.3541 140 38.3501H138C137.886 38.3529 137.772 38.3311 137.667 38.2862C137.562 38.2414 137.467 38.1745 137.39 38.0901ZM147.78 24.3301C151.78 24.3301 153.73 22.6101 153.73 19.1701C153.775 18.4596 153.667 17.7477 153.411 17.0832C153.156 16.4187 152.76 15.8173 152.25 15.3201C150.976 14.3392 149.383 13.8685 147.78 14.0001H140.89V24.3301H147.78Z" fill="#868686"/>
<path d="M163.41 38.0901C163.249 37.913 163.162 37.6797 163.17 37.4401V11.7301C163.16 11.478 163.246 11.2316 163.41 11.0401C163.491 10.9559 163.59 10.89 163.698 10.8469C163.807 10.8038 163.923 10.7844 164.04 10.7901H165.93C166.056 10.7794 166.183 10.7964 166.302 10.8399C166.421 10.8834 166.529 10.9523 166.618 11.0418C166.708 11.1313 166.777 11.2393 166.82 11.3581C166.864 11.477 166.881 11.6039 166.87 11.7301V22.7301H180.58V11.7301C180.573 11.6041 180.591 11.478 180.634 11.3594C180.677 11.2407 180.744 11.1321 180.83 11.0401C180.916 10.9564 181.018 10.891 181.129 10.848C181.241 10.805 181.361 10.7853 181.48 10.7901H183.37C183.497 10.7796 183.624 10.7967 183.743 10.8401C183.863 10.8835 183.971 10.9523 184.061 11.0416C184.152 11.1309 184.222 11.2386 184.266 11.3575C184.311 11.4763 184.329 11.6034 184.32 11.7301V37.4401C184.322 37.562 184.298 37.6828 184.249 37.7948C184.201 37.9068 184.13 38.0074 184.04 38.0901C183.857 38.2568 183.618 38.3494 183.37 38.3501H181.48C181.36 38.3543 181.24 38.3337 181.128 38.2893C181.017 38.2449 180.915 38.1779 180.831 38.0924C180.746 38.0069 180.68 37.9048 180.637 37.7925C180.594 37.6802 180.575 37.5602 180.58 37.4401V26.1001H166.87V37.4401C166.874 37.5613 166.851 37.6819 166.805 37.7939C166.758 37.906 166.689 38.0069 166.6 38.0901C166.417 38.2568 166.178 38.3494 165.93 38.3501H164C163.889 38.3483 163.78 38.3243 163.679 38.2797C163.578 38.235 163.486 38.1706 163.41 38.0901Z" fill="#868686"/>
<path d="M189.55 38.11C189.476 38.0393 189.417 37.9539 189.377 37.8592C189.338 37.7645 189.318 37.6626 189.32 37.56L189.39 37.13L199.16 11.65C199.243 11.3858 199.412 11.1571 199.641 11.0011C199.869 10.845 200.144 10.7706 200.42 10.79H202.94C203.216 10.7706 203.491 10.845 203.719 11.0011C203.948 11.1571 204.117 11.3858 204.2 11.65L214 37.13L214.08 37.56C214.081 37.6653 214.058 37.7695 214.013 37.8647C213.968 37.96 213.902 38.0438 213.82 38.11C213.669 38.2622 213.464 38.3485 213.25 38.35H211.4C211.164 38.3556 210.934 38.2777 210.75 38.13C210.599 38.0144 210.485 37.8583 210.42 37.68L208.17 32H195.17L193 37.68C192.929 37.8851 192.792 38.0614 192.612 38.1823C192.432 38.3032 192.217 38.362 192 38.35H190.1C189.997 38.35 189.895 38.3287 189.8 38.2874C189.705 38.2461 189.62 38.1857 189.55 38.11ZM196.28 28.74H207.07L201.68 14.61L196.28 28.74Z" fill="#868686"/>
<path d="M222.43 37.7201C221.002 37.1634 219.751 36.2304 218.81 35.0201C218.011 33.9841 217.55 32.7271 217.49 31.4201C217.49 31.3167 217.511 31.2144 217.552 31.1196C217.593 31.0249 217.654 30.9399 217.73 30.8701C217.806 30.7908 217.898 30.7284 218 30.6871C218.101 30.6457 218.211 30.6263 218.32 30.6301H220.24C220.473 30.6249 220.7 30.7009 220.882 30.8451C221.065 30.9893 221.191 31.1926 221.24 31.4201C221.52 32.5898 222.235 33.6089 223.24 34.2701C224.671 35.1562 226.341 35.5756 228.02 35.4701C229.768 35.5953 231.513 35.1836 233.02 34.2901C233.556 33.9293 233.99 33.4378 234.283 32.862C234.575 32.2862 234.715 31.6453 234.69 31.0001C234.718 30.1909 234.431 29.4023 233.89 28.8001C233.206 28.1301 232.388 27.6121 231.49 27.2801C230.42 26.8501 228.83 26.2801 226.7 25.6901C225.031 25.251 223.415 24.6306 221.88 23.8401C220.786 23.2799 219.856 22.4462 219.18 21.4201C218.542 20.3161 218.23 19.054 218.28 17.7801C218.26 16.4262 218.658 15.099 219.42 13.9801C220.25 12.8028 221.398 11.8868 222.73 11.3401C224.344 10.6514 226.086 10.3107 227.84 10.3401C229.655 10.2883 231.456 10.6616 233.1 11.4301C234.421 12.0381 235.567 12.9703 236.43 14.1401C237.139 15.0998 237.562 16.2403 237.65 17.4301C237.652 17.5394 237.631 17.648 237.59 17.7493C237.549 17.8506 237.487 17.9426 237.41 18.0199C237.333 18.0973 237.241 18.1584 237.139 18.1996C237.038 18.2408 236.93 18.2614 236.82 18.2601H234.82C234.607 18.2579 234.401 18.1878 234.23 18.0601C234.039 17.9117 233.902 17.7043 233.84 17.4701C233.749 16.8937 233.532 16.3444 233.205 15.8607C232.879 15.377 232.45 14.9706 231.95 14.6701C230.71 13.901 229.269 13.5181 227.81 13.5701C226.321 13.4938 224.843 13.8591 223.56 14.6201C223.043 14.9563 222.626 15.4249 222.352 15.9771C222.077 16.5293 221.956 17.145 222 17.7601C221.964 18.5689 222.22 19.3637 222.72 20.0001C223.355 20.6777 224.134 21.204 225 21.5401C226.447 22.1324 227.926 22.6432 229.43 23.0701C231.231 23.557 232.984 24.2029 234.67 25.0001C235.812 25.5164 236.798 26.3232 237.53 27.3401C238.198 28.4221 238.525 29.6798 238.47 30.9501C238.516 32.0678 238.283 33.1794 237.792 34.1848C237.302 35.1902 236.569 36.058 235.66 36.7101C233.391 38.1923 230.705 38.9041 228 38.7401C226.094 38.7777 224.2 38.4308 222.43 37.7201Z" fill="#868686"/>
<path d="M244.69 38.0901C244.539 37.9075 244.457 37.6772 244.46 37.4401V11.6901C244.457 11.453 244.539 11.2226 244.69 11.0401C244.771 10.9559 244.869 10.8901 244.978 10.8469C245.087 10.8038 245.203 10.7844 245.32 10.7901H247.32C247.565 10.7682 247.81 10.8437 248 11.0001C248.083 11.0896 248.148 11.1951 248.189 11.3103C248.23 11.4255 248.248 11.5479 248.24 11.6701V37.4401C248.243 37.5603 248.221 37.6799 248.176 37.7915C248.132 37.9032 248.065 38.0046 247.98 38.0896C247.895 38.1747 247.793 38.2416 247.681 38.2864C247.57 38.3311 247.45 38.3528 247.33 38.3501H245.33C245.211 38.3552 245.092 38.3347 244.982 38.2898C244.871 38.245 244.772 38.1768 244.69 38.0901Z" fill="#868686"/>
<path d="M259.08 37.72C257.655 37.1582 256.405 36.2261 255.46 35.02C254.661 33.9841 254.2 32.7271 254.14 31.42C254.14 31.3167 254.161 31.2144 254.202 31.1196C254.243 31.0249 254.304 30.9399 254.38 30.87C254.456 30.7913 254.548 30.7293 254.65 30.6879C254.751 30.6466 254.861 30.6269 254.97 30.63H256.9C257.133 30.6249 257.36 30.7009 257.542 30.8451C257.725 30.9893 257.851 31.1926 257.9 31.42C258.18 32.5898 258.895 33.6089 259.9 34.27C261.331 35.155 263.001 35.5742 264.68 35.47C266.428 35.5953 268.173 35.1836 269.68 34.29C270.216 33.93 270.651 33.4386 270.944 32.8626C271.236 32.2867 271.376 31.6454 271.35 31C271.379 30.189 271.088 29.3991 270.54 28.8C269.856 28.1301 269.038 27.6121 268.14 27.28C267.08 26.85 265.48 26.28 263.36 25.69C261.688 25.2507 260.068 24.6304 258.53 23.84C257.441 23.2766 256.515 22.4434 255.84 21.42C255.194 20.319 254.878 19.0555 254.93 17.78C254.909 16.4262 255.308 15.099 256.07 13.98C256.902 12.8047 258.049 11.8892 259.38 11.34C260.998 10.6515 262.742 10.3108 264.5 10.34C266.311 10.2884 268.109 10.6617 269.75 11.43C271.073 12.0351 272.219 12.9679 273.08 14.14C273.793 15.0974 274.217 16.2393 274.3 17.43C274.303 17.5397 274.284 17.6487 274.242 17.7503C274.201 17.8519 274.139 17.9437 274.06 18.02C273.984 18.0993 273.892 18.1617 273.791 18.203C273.689 18.2444 273.58 18.2638 273.47 18.26H271.47C271.257 18.2579 271.051 18.1878 270.88 18.06C270.683 17.9154 270.541 17.707 270.48 17.47C270.388 16.8937 270.172 16.3444 269.845 15.8607C269.519 15.377 269.09 14.9706 268.59 14.67C267.354 13.9007 265.916 13.5177 264.46 13.57C262.971 13.4914 261.492 13.8569 260.21 14.62C259.698 14.9503 259.282 15.41 259.005 15.9526C258.727 16.4952 258.598 17.1015 258.63 17.71C258.592 18.5427 258.867 19.3595 259.4 20C260.021 20.6764 260.787 21.203 261.64 21.54C263.087 22.1324 264.566 22.6432 266.07 23.07C267.877 23.5583 269.637 24.2042 271.33 25C272.467 25.5194 273.449 26.3259 274.18 27.34C274.851 28.421 275.182 29.6787 275.13 30.95C275.176 32.069 274.943 33.1817 274.45 34.1875C273.958 35.1933 273.222 36.0604 272.31 36.71C270.058 38.2006 267.387 38.9264 264.69 38.78C262.768 38.8104 260.859 38.4498 259.08 37.72Z" fill="#868686"/>
<path d="M35.6 20.34C31.76 24.34 28.6 29.94 27 37.81C19.4376 36.4813 12.5854 32.5299 7.64744 26.6501C2.70949 20.7702 0.00174622 13.3382 0 5.66C0.00318017 3.76245 0.17047 1.86872 0.5 0C21.5 1.35 31.22 10.71 35.6 20.34Z" fill="#87AD49"/>
<path d="M64.3501 11C61.1601 22.92 51.2401 35.27 39.0001 37.69C39.1369 31.7287 37.9768 25.8088 35.6001 20.34C47.0001 8.53999 64.3501 11 64.3501 11Z" fill="#BED000"/>
<path d="M39 37.69C36.9048 38.1001 34.775 38.3077 32.64 38.31C30.7424 38.3063 28.8488 38.1391 26.98 37.81C28.57 29.94 31.74 24.33 35.58 20.34C37.9636 25.8072 39.1305 31.7272 39 37.69Z" fill="#658C1A"/>
</g>
<defs>
<clipPath id="clip0_1_349">
<rect width="275.13" height="38.74" fill="white"/>
</clipPath>
</defs>
</svg>
