<svg width="300" height="150" xmlns="http://www.w3.org/2000/svg">

 <g>
  <title>Layer 1</title>
  <g data-name="Warstwa_1" id="Warstwa_1-2">
   <g id="svg_1">
    <g id="svg_2">
     <path id="svg_3" d="m126.08,70.37l0,-42.98l8.72,0l0,42.98l-8.72,0zm5.22,-6.21l-0.92,-11.73l19.77,-25.05l10.07,0l-28.92,36.78l0,0zm19.28,6.21l-12.09,-22.35l6.2,-6.38l16.27,28.73l-10.38,0z"/>
     <path id="svg_4" d="m165.03,70.37l0,-42.98l11.66,0l11.66,26.89l-4.05,0l11.6,-26.89l11.66,0l0,42.98l-8.47,0l0,-38.87l3.13,0l-12.71,30.33l-6.45,0l-12.65,-30.33l3.07,0l0,38.86l-8.47,0l0.02,0.01z"/>
     <path id="svg_5" d="m215.4,70.37l0,-42.98l15.96,0c3.07,0 5.91,0.51 8.53,1.53c2.62,1.02 4.89,2.48 6.81,4.36s3.43,4.11 4.51,6.69s1.63,5.42 1.63,8.53l0,0.61c0,3.15 -0.55,6.02 -1.66,8.6s-2.63,4.82 -4.57,6.72c-1.94,1.9 -4.22,3.37 -6.81,4.39c-2.6,1.02 -5.41,1.53 -8.44,1.53l-15.96,0l0,0.02zm8.71,-4.49l-3.62,-3.62l10.19,0c2.58,0 4.87,-0.55 6.88,-1.66c2,-1.1 3.57,-2.64 4.7,-4.6c1.13,-1.96 1.69,-4.26 1.69,-6.88l0,-0.61c0,-2.62 -0.55,-4.9 -1.66,-6.85c-1.1,-1.94 -2.65,-3.46 -4.63,-4.54c-1.99,-1.08 -4.31,-1.63 -6.97,-1.63l-10.19,0l3.62,-3.62l0,34.01l0,0l-0.01,0z"/>
     <path id="svg_6" d="m255.81,61.1l0,-7.06l12.65,-26.65l8.53,0l-13.26,28.67l-1.9,-2.52l27.01,0l0,7.55l-33.03,0l0,0.01zm19.03,9.27l0,-27.38l8.23,0l0,27.38l-8.23,0z"/>
     <path id="svg_7" d="m133.08,122.76c-2.13,0 -3.89,-0.7 -5.28,-2.09c-1.39,-1.39 -2.09,-3.13 -2.09,-5.22l0,-28.36c0,-2.09 0.7,-3.83 2.09,-5.22c1.39,-1.39 3.15,-2.09 5.28,-2.09l21.43,0l0,7.86l-18.48,0c-0.49,0 -0.9,0.18 -1.23,0.52c-0.33,0.35 -0.49,0.77 -0.49,1.26l0,23.7c0,0.49 0.16,0.91 0.49,1.26c0.33,0.35 0.74,0.52 1.23,0.52l18.48,0l0,7.86l-21.43,0zm-3.19,-17.87l0,-7.49l23.33,0l0,7.49l-23.33,0z"/>
     <path id="svg_8" d="m184.72,123.62c-4.05,0 -7.7,-0.93 -10.93,-2.79c-3.23,-1.86 -5.78,-4.45 -7.64,-7.77c-1.86,-3.32 -2.79,-7.18 -2.79,-11.6l0,-0.43c0,-4.42 0.93,-8.29 2.79,-11.6c1.86,-3.32 4.41,-5.89 7.64,-7.73c3.23,-1.84 6.88,-2.76 10.93,-2.76s7.73,0.92 10.93,2.76c3.19,1.84 5.72,4.42 7.58,7.73c1.86,3.32 2.79,7.18 2.79,11.6l0,0.43c0,4.42 -0.93,8.29 -2.79,11.6c-1.86,3.32 -4.39,5.9 -7.58,7.77c-3.19,1.86 -6.84,2.79 -10.93,2.79zm0,-8.47c2.41,0 4.55,-0.54 6.42,-1.63c1.86,-1.08 3.32,-2.65 4.39,-4.7s1.6,-4.5 1.6,-7.37l0,-0.43c0,-2.82 -0.53,-5.26 -1.6,-7.31c-1.06,-2.05 -2.53,-3.61 -4.39,-4.7c-1.86,-1.08 -4,-1.63 -6.42,-1.63s-4.56,0.54 -6.45,1.63c-1.88,1.09 -3.36,2.65 -4.42,4.7c-1.06,2.05 -1.6,4.48 -1.6,7.31l0,0.43c0,2.87 0.53,5.32 1.6,7.37c1.06,2.05 2.54,3.61 4.42,4.7c1.88,1.09 4.03,1.63 6.45,1.63z"/>
     <path id="svg_9" d="m228.16,123.62c-3.28,0 -6.12,-0.61 -8.53,-1.84c-2.42,-1.23 -4.48,-2.82 -6.2,-4.79l5.34,-5.34c1.72,1.68 3.35,2.88 4.88,3.62c1.53,0.74 3.16,1.1 4.88,1.1c2.17,0 3.86,-0.5 5.06,-1.5c1.21,-1 1.81,-2.26 1.81,-3.78c0,-1.31 -0.38,-2.36 -1.14,-3.16c-0.76,-0.8 -1.76,-1.45 -3.01,-1.96c-1.25,-0.51 -2.62,-0.99 -4.11,-1.44c-1.49,-0.45 -2.99,-0.95 -4.48,-1.5s-2.87,-1.27 -4.11,-2.15s-2.25,-2.01 -3.01,-3.41c-0.76,-1.39 -1.14,-3.15 -1.14,-5.28c0,-2.7 0.63,-5.04 1.9,-7.03c1.27,-1.99 3.05,-3.52 5.34,-4.6c2.29,-1.08 4.97,-1.63 8.04,-1.63c2.86,0 5.47,0.51 7.83,1.53c2.35,1.02 4.27,2.39 5.74,4.11l-5.53,5.53c-1.27,-1.31 -2.54,-2.29 -3.81,-2.95c-1.27,-0.65 -2.68,-0.98 -4.24,-0.98c-2.01,0 -3.62,0.48 -4.85,1.44c-1.23,0.96 -1.84,2.22 -1.84,3.78c0,1.23 0.39,2.21 1.17,2.95c0.78,0.74 1.79,1.32 3.04,1.75c1.25,0.43 2.64,0.85 4.18,1.26c1.53,0.41 3.06,0.88 4.57,1.41c1.51,0.53 2.9,1.24 4.14,2.12c1.25,0.88 2.26,2.04 3.04,3.47c0.78,1.43 1.17,3.25 1.17,5.46c0,2.78 -0.69,5.21 -2.06,7.28s-3.26,3.67 -5.68,4.82c-2.42,1.15 -5.22,1.72 -8.41,1.72l0,0l0.02,-0.01z"/>
     <path id="svg_10" d="m274.79,123.68c-3.11,0 -6.02,-0.54 -8.72,-1.63c-2.7,-1.08 -5.06,-2.61 -7.09,-4.57c-2.03,-1.96 -3.61,-4.29 -4.76,-6.97c-1.15,-2.68 -1.72,-5.64 -1.72,-8.87l0,-0.74c0,-3.23 0.57,-6.19 1.72,-8.87c1.15,-2.68 2.73,-5 4.76,-6.97c2.03,-1.96 4.39,-3.49 7.09,-4.57c2.7,-1.08 5.61,-1.63 8.72,-1.63c2.95,0 5.63,0.47 8.04,1.41c2.41,0.94 4.56,2.27 6.45,3.99l-5.53,6.57c-2.46,-2.33 -5.44,-3.5 -8.96,-3.5c-1.92,0 -3.71,0.33 -5.34,0.98c-1.64,0.66 -3.06,1.59 -4.27,2.79s-2.14,2.64 -2.79,4.3c-0.66,1.66 -0.98,3.49 -0.98,5.5l0,0.74c0,2.01 0.33,3.84 0.98,5.5c0.65,1.66 1.59,3.09 2.79,4.3c1.21,1.21 2.63,2.14 4.27,2.79c1.64,0.66 3.42,0.98 5.34,0.98c3.64,0 6.71,-1.25 9.21,-3.75l5.59,6.51c-1.96,1.8 -4.2,3.2 -6.69,4.21c-2.5,1 -5.2,1.5 -8.1,1.5l0,0l-0.01,0z"/>
    </g>
    <g id="svg_11">
     <g id="svg_12">
      <g id="svg_13">
       <path id="svg_14" d="m110.4,74.46c0.03,9.55 -2.65,18.86 -7.76,26.91c-0.16,0.26 -0.33,0.52 -0.5,0.78c-0.27,0.41 -0.55,0.82 -0.83,1.21c-0.19,0.27 -0.39,0.54 -0.58,0.8c-0.15,0.2 -0.3,0.4 -0.45,0.6c-0.13,0.18 -0.27,0.35 -0.41,0.53l-0.02,0.02c-2.15,2.75 -4.59,5.27 -7.25,7.5l-0.03,0.02l0,0c-4.64,3.88 -9.88,6.85 -15.58,8.83c-0.03,0.01 -0.11,0.04 -0.11,0.04l-0.06,0.02c-0.09,0.03 -0.18,0.06 -0.27,0.09l-0.44,0.15l-0.43,0.14c-0.25,0.08 -0.51,0.16 -0.77,0.24c-0.16,0.05 -0.33,0.1 -0.49,0.14c-0.15,0.04 -0.3,0.09 -0.45,0.13l-0.05,0c-2.41,0.68 -4.9,1.17 -7.39,1.46l0,-24.99l0,0l0,-16.56c-0.04,-0.75 -0.18,-1.48 -0.66,-2.06l-0.02,-0.05l-0.09,-0.08c-0.57,-0.64 -1.34,-1.1 -2.19,-1.21l-9.13,0s-0.88,0 -0.88,0l-5.26,0c-0.38,0 -0.75,-0.04 -1.1,-0.13c-0.91,-0.22 -1.71,-0.72 -2.33,-1.42c-0.68,-0.77 -1.07,-1.76 -1.12,-2.78c0,-0.06 0,-0.11 0,-0.16l0,-0.07s0,0 0,0l0,-10.06l0,0l0,-27.02l-1.27,0.64c-0.74,0.37 -1.52,0.8 -2.41,1.31l-0.02,0c-12.45,7.34 -20.17,20.84 -20.17,35.25c0,19.52 13.74,36.25 32.78,40.06c0,0 0.31,0.07 0.89,0.16c0.58,0.09 1.42,0.22 2.47,0.32c1.81,0.18 3.31,0.1 3.31,0.1l0,8.81c-3.26,0.04 -5.72,-0.26 -5.72,-0.26c-8.9,-1.28 -17.25,-4.96 -24.18,-10.59c-0.46,-0.37 -0.91,-0.75 -1.35,-1.14q-0.3,-0.26 0,0c-1.68,-1.47 -3.27,-3.06 -4.76,-4.76c-7.96,-9.04 -12.32,-20.65 -12.32,-32.69c0,-17 8.56,-32.65 22.88,-41.85c1.82,-1.17 3.74,-2.23 5.68,-3.15c0.45,-0.21 0.86,-0.4 1.26,-0.57c0.18,-0.08 0.36,-0.16 0.54,-0.23c0.66,-0.28 1.32,-0.54 1.95,-0.77l0.35,-0.13c0.24,-0.09 0.49,-0.18 0.75,-0.26c0,0 0.28,-0.1 0.34,-0.12c0.13,-0.04 0.25,-0.08 0.37,-0.13l0.36,-0.12c0.43,-0.14 0.78,-0.25 1.12,-0.35c0.21,-0.06 0.42,-0.12 0.62,-0.18c0.19,-0.05 0.38,-0.11 0.58,-0.16l0.1,-0.03c0.15,-0.04 0.29,-0.08 0.44,-0.12c0.01,0 0.05,-0.01 0.05,-0.01c0.06,-0.02 0.13,-0.03 0.19,-0.05l0.03,0c0.1,-0.03 0.18,-0.05 0.26,-0.07c0.18,-0.04 0.34,-0.08 0.5,-0.12c0.21,-0.05 0.41,-0.1 0.62,-0.14c0.1,-0.02 0.19,-0.04 0.28,-0.06l0.19,-0.04c0.16,-0.03 0.31,-0.06 0.47,-0.1c0.13,-0.03 0.24,-0.05 0.36,-0.07l0.08,0c0.41,-0.09 0.82,-0.17 1.24,-0.24l0,41.12c0.04,0.75 0.42,1.46 0.89,2.04l0,0.02s0.09,0.09 0.09,0.09c0.56,0.64 1.34,1.07 2.18,1.2l14.98,0c0.94,0 2.16,0.29 2.93,0.83c0.15,0.1 0.29,0.21 0.42,0.34c0.91,0.81 1.21,1.91 1.28,3.11c0,0.09 0,0.18 0,0.27l0.02,38.27l1.38,-0.64c3.16,-1.35 6.13,-3.15 8.86,-5.26c0.76,-0.59 1.5,-1.2 2.19,-1.82c0.13,-0.12 0.26,-0.24 0.4,-0.36c0.26,-0.24 0.53,-0.49 0.78,-0.73c0.13,-0.12 0.25,-0.25 0.38,-0.37c0.66,-0.65 1.32,-1.35 1.96,-2.07c0.3,-0.34 0.6,-0.69 0.92,-1.09l0.2,-0.24l0,0c0.23,-0.29 0.47,-0.58 0.69,-0.88c0.12,-0.16 0.23,-0.31 0.35,-0.46l0.07,-0.09s0.05,-0.07 0.07,-0.1l0,-0.02s0.06,-0.07 0.09,-0.1l0.09,-0.13c0.12,-0.16 0.24,-0.34 0.36,-0.51c0.08,-0.12 0.16,-0.23 0.24,-0.35l0.03,-0.04s0.05,-0.08 0.08,-0.11c0.14,-0.21 0.28,-0.42 0.42,-0.63l0.14,-0.22c0.09,-0.14 0.18,-0.29 0.27,-0.43c4.03,-6.46 6.16,-13.92 6.16,-21.58c0,-9.32 -3.22,-18.43 -9.07,-25.66c-0.28,-0.34 -0.57,-0.69 -0.87,-1.04l0,-0.02c-0.14,-0.14 -0.26,-0.28 -0.39,-0.43c-0.12,-0.13 -0.24,-0.27 -0.37,-0.41l-0.02,-0.02c-0.12,-0.13 -0.24,-0.26 -0.36,-0.39c-0.17,-0.18 -0.34,-0.36 -0.52,-0.55l0,0s-0.26,-0.26 -0.26,-0.26c-0.12,-0.12 -0.23,-0.23 -0.34,-0.34c-0.04,-0.04 -0.09,-0.09 -0.13,-0.13c-0.03,-0.03 -0.05,-0.05 -0.08,-0.08l-0.05,-0.05c-0.11,-0.11 -0.22,-0.21 -0.32,-0.31c-0.21,-0.2 -0.42,-0.4 -0.64,-0.59c-0.1,-0.09 -0.2,-0.18 -0.3,-0.26c-0.26,-0.23 -0.48,-0.42 -0.68,-0.59c-0.1,-0.09 -0.22,-0.19 -0.33,-0.28c-0.12,-0.1 -0.23,-0.19 -0.34,-0.28c-0.21,-0.18 -0.44,-0.36 -0.68,-0.54l-0.28,-0.21c-0.1,-0.08 -0.21,-0.16 -0.31,-0.24c-0.15,-0.11 -0.29,-0.22 -0.44,-0.33l-0.23,-0.17l0,0s-0.29,-0.21 -0.29,-0.21c-0.09,-0.06 -0.18,-0.13 -0.27,-0.19c-0.09,-0.06 -0.18,-0.12 -0.27,-0.19c0,0 -0.22,-0.15 -0.32,-0.21c-0.09,-0.06 -0.17,-0.11 -0.24,-0.16c0,0 -0.04,-0.03 -0.05,-0.03c-0.14,-0.1 -0.29,-0.19 -0.44,-0.28c-4.87,-3.1 -10.44,-5.16 -16.16,-5.99c0,0 -1.34,-0.24 -2.94,-0.33c-1.94,-0.11 -3.71,-0.21 -3.71,-0.21l-0.04,-8.73c2.71,0 4.51,0.11 5.88,0.25c0.77,0.08 1.56,0.18 2.35,0.3c6.19,0.93 12.07,2.98 17.48,6.1c0.02,0.01 0.05,0.03 0.07,0.04c0.37,0.22 0.71,0.42 1.02,0.61l0.09,0.05c0.08,0.05 0.17,0.1 0.25,0.16c0.1,0.06 0.19,0.12 0.27,0.17c0.42,0.26 0.8,0.51 1.16,0.76c0.22,0.15 0.44,0.3 0.66,0.45c0.18,0.12 0.35,0.24 0.52,0.37c0.24,0.17 0.46,0.33 0.69,0.5c0.12,0.09 0.24,0.18 0.36,0.27l0.06,0.05c0.59,0.45 1.18,0.91 1.75,1.39c0.16,0.13 0.31,0.26 0.47,0.4c0.47,0.4 0.93,0.81 1.37,1.21c0.15,0.14 0.3,0.28 0.44,0.41c0.13,0.13 0.26,0.25 0.4,0.37c0.16,0.16 0.32,0.31 0.48,0.47c0.34,0.33 0.68,0.69 1.07,1.09c0.06,0.06 0.11,0.11 0.16,0.17l0.02,0.03c0.08,0.09 0.16,0.17 0.25,0.26c0.18,0.19 0.35,0.38 0.52,0.57c0.18,0.19 0.34,0.38 0.51,0.57c0.13,0.15 0.27,0.31 0.4,0.47c0.11,0.13 0.22,0.26 0.33,0.39c0.12,0.14 0.23,0.28 0.34,0.42l0,0.02c0.06,0.05 0.1,0.1 0.15,0.16c0.05,0.06 0.09,0.11 0.13,0.16l0.04,0.05c0.15,0.19 0.3,0.38 0.44,0.57c0.11,0.14 0.21,0.27 0.31,0.41l0,0.02c0.12,0.13 0.21,0.26 0.31,0.4l0.04,0.05c0.07,0.1 0.14,0.19 0.21,0.29l0.03,0.03c0.04,0.05 0.07,0.1 0.1,0.15l0.07,0.1c0.15,0.2 0.29,0.4 0.43,0.61l0.18,0.26l0.17,0.25c0.06,0.08 0.11,0.16 0.16,0.23l0.07,0.11c0.05,0.07 0.09,0.14 0.14,0.21c0.12,0.18 0.23,0.34 0.33,0.51l0,0.02s0.06,0.07 0.08,0.1l0.03,0.04c0.06,0.09 0.12,0.19 0.18,0.28c0.07,0.11 0.13,0.21 0.19,0.31l0,0c0.02,0.05 0.04,0.08 0.06,0.11l0.02,0.03c0.07,0.12 0.14,0.23 0.21,0.35c0.08,0.13 0.15,0.25 0.22,0.37c0.21,0.35 0.42,0.73 0.66,1.15l0.24,0.44s0.04,0.07 0.05,0.1l0,0.02c0.09,0.14 0.16,0.28 0.23,0.42c0.02,0.03 0.04,0.07 0.06,0.1c0,0 0.03,0.06 0.03,0.06c0.25,0.47 0.48,0.94 0.71,1.41c0,0 0.02,0.05 0.02,0.05c0.08,0.16 0.15,0.31 0.22,0.47c0.08,0.17 0.16,0.34 0.23,0.5l0.2,0.45l0.17,0.38l0.22,0.53c0.05,0.13 0.11,0.27 0.16,0.4l0.24,0.58c0.06,0.15 0.12,0.29 0.17,0.44l0.02,0.05s0.02,0.04 0.03,0.07l0,0.03c0.07,0.17 0.14,0.33 0.2,0.5l0.04,0.12c0.03,0.06 0.05,0.13 0.07,0.19c0.04,0.12 0.08,0.23 0.12,0.34c0,0.02 0.05,0.14 0.05,0.14c0.01,0.04 0.03,0.09 0.05,0.13l0,0.04s0.03,0.05 0.03,0.05l0,0.03s0.04,0.1 0.04,0.1c0.05,0.15 0.1,0.28 0.14,0.42l0,0.03s0.03,0.06 0.04,0.1l0.11,0.35s0.11,0.35 0.11,0.35c0,0.03 0.02,0.06 0.03,0.08l0,0.02c0.05,0.16 0.1,0.32 0.15,0.48l0,0.02c0.02,0.05 0.04,0.11 0.06,0.16l0.08,0.28l0,0c0.02,0.08 0.07,0.26 0.07,0.26c0,0.03 0.02,0.06 0.02,0.08l0.02,0.08c0.02,0.07 0.04,0.14 0.06,0.21l0,0s0.02,0.07 0.02,0.07c0.02,0.08 0.04,0.16 0.06,0.24l0,0.04s0.03,0.06 0.03,0.08l0.09,0.37c0.04,0.16 0.08,0.33 0.12,0.49l0,0.04c0.05,0.18 0.1,0.36 0.14,0.54c0.07,0.3 0.13,0.6 0.2,0.9c0,0 0.01,0.06 0.02,0.09c0.01,0.06 0.03,0.14 0.04,0.21l0,0.02c0.02,0.06 0.03,0.12 0.04,0.18l0,0.02c0.04,0.19 0.08,0.39 0.12,0.59c0.1,0.52 0.19,1.04 0.26,1.56c0.03,0.16 0.05,0.31 0.07,0.47l0,0.03c0.03,0.17 0.05,0.33 0.07,0.5c0.03,0.21 0.05,0.4 0.07,0.59l0,0.1c0.03,0.19 0.06,0.4 0.08,0.6l0,0.04c0.04,0.37 0.08,0.74 0.11,1.1c0,0.03 0,0.06 0,0.08c0.01,0.13 0.02,0.25 0.03,0.38c0.01,0.14 0.02,0.28 0.03,0.41l0.03,0.41l0.02,0.4c0.01,0.27 0.03,0.53 0.03,0.8c0,0.27 0.02,0.53 0.02,0.8l0,0.41c0,0.08 0,0.15 0,0.21l0.01,0l0.08,0.01z"/>
       <rect id="svg_15" height="3.34" width="0" y="61.15" x="43.72"/>
       <polygon id="svg_16" points="66.5099983215332,99.06999969482422 66.5099983215332,108.05000305175781 66.5099983215332,99.06999969482422 66.5099983215332,99.06999969482422 "/>
      </g>
      <path id="svg_17" d="m94.63,74.53c0,6.57 -1.87,12.71 -5.1,17.91c-2.01,3.23 -4.54,6.09 -7.48,8.47c-0.14,0.11 -0.27,0.22 -0.41,0.32l0,-11.81c1.18,-1.66 2.18,-3.47 2.94,-5.39c1.17,-2.94 1.81,-6.15 1.81,-9.5c0,-12.48 -8.9,-22.88 -20.7,-25.21c0,0 -2.19,-0.41 -2.93,-0.49c-1.28,-0.13 -2.94,-0.26 -2.94,-0.26l0,-8.17s1.01,0.04 2.79,0.15c1.02,0.06 3.09,0.41 3.09,0.41c0.05,0 0.1,0.01 0.16,0.02c16.29,2.48 28.77,16.55 28.77,33.54l0,0l0,0.01z"/>
     </g>
     <path id="svg_18" d="m59.31,99.7l0,8.76c-1.81,-0.09 -3.59,-0.32 -5.31,-0.68c0,0 0,0 0,0l0,0c-0.16,-0.03 -0.33,-0.07 -0.5,-0.11c0,0 0,0 -0.01,0c-3.93,-0.88 -7.6,-2.45 -10.87,-4.57l0,0c-1.62,-1.05 -3.15,-2.23 -4.57,-3.53c-6.77,-6.21 -11.01,-15.12 -11.01,-25.03s4.05,-18.41 10.54,-24.59l0,0s0,13.53 0,13.53c-1.52,3.27 -2.37,6.91 -2.37,10.75c0,13.62 10.68,24.75 24.12,25.47l0,0l-0.02,0z"/>
     <rect id="svg_19" opacity="0.33" fill="#ff6e9a" isolation="isolate" height="8.98" width="0" y="99.07" x="66.51" class="cls-2"/>
     <rect id="svg_20" isolation="isolate" opacity="0.51" fill="#61f700" height="3.34" width="0" y="61.15" x="43.72" class="cls-1"/>
    </g>
   </g>
  </g>
 </g>
</svg>