<?xml version="1.0" encoding="UTF-8"?>
<svg id="Camada_1" data-name="Camada 1" xmlns="http://www.w3.org/2000/svg" viewBox="0 0 1342.56 425.2">
  <defs>
    <style>
      .cls-1 {
        fill: #104797;
      }
    </style>
  </defs>
  <g>
    <path class="cls-1" d="M230.28,70.87h-31.22c-1.58,25.22-2.49,50.79-2.7,76.14,6.85-.63,13.67-1.41,20.46-2.32,3.83-24.69,8.35-49.46,13.46-73.82Z"/>
    <path class="cls-1" d="M418.77,70.87h-95.17c-.45,15.83-.8,31.79-1.05,47.79,33.59-12.31,65.79-28.32,96.22-47.79Z"/>
    <path class="cls-1" d="M307.42,123.91c.24-17.75.63-35.48,1.13-53.05h-62.94c-4.99,23.56-9.41,47.56-13.2,71.49,25.56-4.22,50.62-10.39,75.01-18.44Z"/>
    <path class="cls-1" d="M564.86,193.19c-19,14.28-38.72,27.42-59.07,39.38l-.39,60.02c19.69,4.94,39.26,10.01,58.72,15.19l.74-114.59Z"/>
    <path class="cls-1" d="M322.19,150.06c-.22,33.66.06,67.38.8,100.97,25.2,5.18,50.26,10.55,75.16,16.12,31.99-11.65,62.99-25.97,92.65-42.86l.99-153.42h-46.44c-38.26,26.87-79.56,48.11-123.01,63.48-.06,5.24-.11,10.48-.15,15.71Z"/>
    <path class="cls-1" d="M399.17,282.37c-24.37,8.67-49.28,15.86-74.63,21.43.63,16.92,1.38,33.77,2.25,50.53h163.17l.33-50.4c-30.13-7.47-60.49-14.68-91.12-21.56Z"/>
    <path class="cls-1" d="M579.98,181.48l-.84,130.32c20.56,5.56,40.96,11.29,61.25,17.12V126.34c-19.07,19.78-39.24,38.2-60.41,55.15Z"/>
    <path class="cls-1" d="M505.3,307.66l-.3,46.68h58.82l.2-31.41c-19.46-5.21-39.03-10.31-58.72-15.27Z"/>
    <path class="cls-1" d="M490.69,241.17c-21.65,11.93-43.94,22.59-66.81,31.84,22.3,5.13,44.47,10.41,66.5,15.85l.31-47.69Z"/>
    <path class="cls-1" d="M188.82,303.62c-2.21-21.28-3.91-42.66-5.15-64.09-36.7-6.38-73.66-12.36-110.84-17.92v70.27c37.58,7.5,76.09,11.46,114.67,11.73.44,0,.88,0,1.32,0Z"/>
    <path class="cls-1" d="M181.33,162.84c-10.79.66-21.64,1-32.56,1-1.23,0-2.45,0-3.68-.01-24.21-.16-48.47-2.01-72.26-5.47v48.46c36.9,5.5,73.59,11.4,110.02,17.71-.97-20.55-1.46-41.13-1.53-61.69Z"/>
    <path class="cls-1" d="M506.83,70.87l-.93,144.52c20.41-12.42,40.12-26.1,59.08-40.93l.67-103.59h-58.82Z"/>
    <path class="cls-1" d="M145.19,149.21c12.11.07,24.15-.29,36.11-1.05.18-25.72,1.1-51.68,2.69-77.3h-111.15v72.71c23.79,3.56,48.1,5.47,72.35,5.64Z"/>
    <path class="cls-1" d="M580.1,162.24c21.2-17.69,41.35-36.91,60.28-57.57v-33.8h-59.69l-.59,91.37Z"/>
    <path class="cls-1" d="M190.46,318.24c-1.01,0-2.02,0-3.04-.01-38.53-.26-77-4.1-114.58-11.41v47.51h122.21c-1.68-11.99-3.21-24.02-4.59-36.09Z"/>
    <path class="cls-1" d="M579.04,326.94l-.18,27.39h61.52v-10.17c-20.32-5.87-40.75-11.63-61.35-17.22Z"/>
    <path class="cls-1" d="M309.6,306.91c-30.71,5.96-62.01,9.56-93.66,10.8-.37,12.22-.6,24.43-.65,36.61h96.44c-.81-15.73-1.53-31.54-2.13-47.42Z"/>
    <path class="cls-1" d="M371.35,276.24c-15.94-3.47-31.93-6.89-47.99-10.21.2,7.64.42,15.27.67,22.89,15.96-3.59,31.75-7.82,47.32-12.68Z"/>
    <path class="cls-1" d="M216.43,303.06c31.32-1.29,62.29-4.96,92.66-10.99-.32-9.68-.61-19.38-.86-29.09-29.23-5.93-58.65-11.59-88.26-16.99-1.57,19.03-2.77,38.06-3.55,57.07Z"/>
    <path class="cls-1" d="M307.25,139.44c-25.1,8-50.87,14.08-77.15,18.17-3.6,24.49-6.57,49.1-8.86,73.74,29.06,5.28,57.94,10.84,86.65,16.63-.69-32.61-.94-65.35-.73-98.02.02-3.5.07-7.01.1-10.52Z"/>
    <path class="cls-1" d="M205.12,243.29c-2.07-.37-4.15-.72-6.22-1.09.88,14.58,1.97,29.13,3.31,43.64.75-14.18,1.73-28.37,2.91-42.55Z"/>
    <path class="cls-1" d="M214.61,159.75c-6.06.76-12.14,1.41-18.24,1.96.06,21.83.57,43.68,1.65,65.49,2.78.49,5.58.97,8.36,1.47,2.16-23.03,4.94-46.02,8.23-68.91Z"/>
  </g>
  <g>
    <path class="cls-1" d="M715.44,354.31V70.89h74.5v215.4h110.53v68.02h-185.03Z"/>
    <path class="cls-1" d="M927.22,354.31V70.89h74.5v283.42h-74.5Z"/>
    <path class="cls-1" d="M1041.36,354.31V70.89h117.42c21.32,0,40.35,3.78,57.09,11.34,16.73,7.56,29.89,18.49,39.48,32.8,9.58,14.31,14.37,31.58,14.37,51.83s-4.45,37.49-13.36,51.72c-8.91,14.24-21.76,25.14-38.57,32.7-16.8,7.56-37.08,11.34-60.83,11.34h-41.09v91.71h-74.5ZM1115.86,200.66h38.46c12.82,0,22.84-2.46,30.06-7.39,7.22-4.92,10.83-13.39,10.83-25.41s-3.75-20.72-11.23-25.71c-7.49-4.99-17.24-7.49-29.25-7.49h-38.87v66Z"/>
  </g>
</svg>