<?xml version="1.0" encoding="UTF-8"?>
<svg id="Capa_1" data-name="Capa 1" xmlns="http://www.w3.org/2000/svg" viewBox="0 0 841.89 595.28">
  <defs>
    <style>
      .cls-1 {
        fill: #eb5d80;
      }

      .cls-2 {
        fill: #1d1d1b;
      }

      .cls-3 {
        fill: #02838d;
      }
    </style>
  </defs>
  <path class="cls-2" d="M158.78,139.17l-37.07,97.55h13.61l9.39-26.01h43.26l9.44,26.01h14.39l-37.85-97.55h-15.17ZM148.61,199.36l17.43-48.85,17.84,48.85h-35.27ZM298.39,205.17v-66h-5.06l-42.26,66.56v3.04h43.29v27.95h4.02v-27.95h13.61v-3.6h-13.61ZM294.37,205.17h-38.63l38.63-61.02v61.02ZM222.3,236.72h12.57v-97.55h-12.57v97.55Z"/>
  <rect class="cls-2" x="121.71" y="295.09" width="598.1" height="3.01"/>
  <g>
    <path class="cls-2" d="M420.09,406.78c1.47-1.29,2.21-2.92,2.21-4.89-.12-7.01-1.41-13.29-3.88-18.82-2.46-5.54-5.72-10.34-9.78-14.4-4.06-4.06-8.74-7.13-14.03-9.23-5.29-2.09-10.77-3.14-16.42-3.14-7.63,0-14.86,2-21.69,6-6.83,4-12.37,9.78-16.62,17.35-4.24,7.57-6.37,16.7-6.37,27.41,0,9.6,2.03,18.06,6.09,25.38,4.06,7.32,9.78,13.08,17.17,17.26,7.38,4.18,16.06,6.27,26.03,6.27,6.65,0,12.89-1.41,18.74-4.24,5.84-2.83,10.55-6.15,14.12-9.97,1.96-1.72,2.95-3.63,2.95-5.72,0-1.72-.62-3.2-1.85-4.43-1.23-1.23-2.71-1.85-4.43-1.85-1.6,0-3.2.56-4.8,1.66-1.6,1.73-3.54,3.42-5.81,5.08-2.28,1.66-5.02,3.04-8.22,4.15-3.2,1.1-6.95,1.66-11.25,1.66-6.89,0-12.92-1.57-18.09-4.71-5.17-3.14-9.2-7.41-12.09-12.83-2.51-4.7-3.93-10.05-4.26-16.06h67.11c1.97,0,3.7-.64,5.17-1.94M357.42,378.45c2.89-2.83,6.15-4.92,9.79-6.28,3.63-1.35,7.29-2.03,10.98-2.03,4.55,0,8.89.99,13.01,2.95,4.12,1.97,7.63,4.77,10.52,8.4,2.89,3.63,4.52,7.97,4.89,13.01v1.48h-57.99c.44-2.32,1.01-4.49,1.78-6.46,1.78-4.55,4.12-8.24,7.01-11.07"/>
    <path class="cls-2" d="M535.08,406.14c0,9.6-2.12,18.15-6.37,25.66-4.24,7.5-9.97,13.42-17.16,17.72-7.2,4.31-15.29,6.46-24.27,6.46s-17.11-2.15-24.37-6.46c-7.26-4.3-13.01-10.22-17.26-17.72-4.24-7.5-6.37-16.06-6.37-25.66s2.12-18.15,6.37-25.66c4.24-7.5,10-13.41,17.26-17.72,7.26-4.31,15.38-6.46,24.37-6.46s17.08,2.16,24.27,6.46c7.2,4.31,12.92,10.22,17.16,17.72,4.25,7.51,6.37,16.06,6.37,25.66M520.13,406.14c0-7.14-1.45-13.38-4.34-18.74-2.9-5.35-6.83-9.6-11.81-12.73-4.98-3.14-10.55-4.71-16.7-4.71s-11.91,1.57-16.89,4.71c-4.98,3.14-8.95,7.38-11.91,12.73-2.95,5.35-4.43,11.6-4.43,18.74s1.48,13.23,4.43,18.64c2.96,5.41,6.93,9.69,11.91,12.83,4.98,3.14,10.61,4.71,16.89,4.71s11.72-1.57,16.7-4.71c4.98-3.14,8.92-7.42,11.81-12.83,2.89-5.41,4.34-11.63,4.34-18.64"/>
    <path class="cls-2" d="M551.7,438.99c-.99-1.6-1.45-3.29-1.38-5.08.06-1.78,1.07-3.35,3.04-4.71,1.35-.86,2.86-1.23,4.52-1.11,1.66.12,3.17.92,4.52,2.4,3.44,4.06,7.38,7.29,11.81,9.69,4.43,2.4,9.84,3.6,16.24,3.6,2.83-.12,5.75-.62,8.77-1.48,3.01-.86,5.54-2.37,7.57-4.52,2.03-2.15,3.05-5.01,3.05-8.58s-1.05-6.19-3.14-8.21c-2.1-2.03-4.84-3.69-8.22-4.98-3.39-1.29-6.98-2.43-10.8-3.41-4.06-1.11-8.06-2.34-12-3.69-3.94-1.35-7.47-3.11-10.61-5.26-3.14-2.15-5.66-4.86-7.57-8.12-1.91-3.26-2.86-7.29-2.86-12.09,0-5.54,1.51-10.34,4.52-14.4,3.01-4.06,7.04-7.2,12.09-9.41,5.04-2.22,10.64-3.32,16.79-3.32,3.45,0,7.04.4,10.8,1.2,3.75.8,7.41,2.16,10.98,4.06,3.57,1.91,6.7,4.52,9.41,7.85,1.11,1.23,1.72,2.76,1.85,4.61.12,1.85-.68,3.51-2.4,4.98-1.36.99-2.86,1.45-4.52,1.38-1.66-.06-3.04-.65-4.15-1.75-2.71-3.2-6-5.63-9.88-7.29-3.87-1.66-8.15-2.49-12.83-2.49-2.83,0-5.66.46-8.49,1.38-2.83.92-5.2,2.37-7.11,4.34-1.91,1.97-2.86,4.74-2.86,8.3.12,3.32,1.23,6.04,3.32,8.13,2.09,2.09,4.92,3.78,8.49,5.08,3.57,1.29,7.5,2.55,11.81,3.78,3.94.99,7.72,2.12,11.35,3.42,3.63,1.29,6.92,2.98,9.87,5.07,2.96,2.1,5.29,4.77,7.02,8.03,1.72,3.26,2.58,7.36,2.58,12.28,0,5.66-1.6,10.55-4.8,14.67-3.2,4.13-7.41,7.26-12.64,9.41-5.23,2.15-10.86,3.23-16.89,3.23-6.77,0-13.47-1.26-20.12-3.78-6.64-2.52-12.36-6.93-17.16-13.2"/>
    <path class="cls-2" d="M686.99,356.3c6.4,0,12.12.68,17.17,2.03,5.04,1.35,9.05,3.2,12,5.54,2.95,2.34,4.43,4.98,4.43,7.94,0,1.72-.56,3.32-1.66,4.8-1.11,1.48-2.65,2.22-4.62,2.22-1.6,0-2.92-.34-3.97-1.02-1.05-.67-2.03-1.48-2.95-2.4-.92-.92-2.19-1.81-3.78-2.67-1.48-.74-3.63-1.39-6.46-1.94-2.83-.56-5.66-.83-8.49-.83-6.77,0-12.7,1.6-17.81,4.8-5.11,3.2-9.14,7.51-12.09,12.92s-4.43,11.57-4.43,18.46,1.41,13.05,4.24,18.46c2.83,5.42,6.77,9.72,11.81,12.92,5.04,3.2,10.89,4.8,17.53,4.8,4.31,0,7.73-.37,10.25-1.11,2.52-.74,4.71-1.6,6.55-2.58,2.09-1.23,3.72-2.46,4.89-3.69,1.17-1.23,2.8-1.84,4.89-1.84s3.72.67,4.89,2.03c1.17,1.36,1.76,3.01,1.76,4.98,0,2.34-1.54,4.74-4.62,7.2-3.08,2.46-7.26,4.52-12.55,6.19-5.3,1.66-11.2,2.49-17.72,2.49-9.36,0-17.54-2.18-24.55-6.55-7.01-4.36-12.46-10.33-16.34-17.9-3.88-7.57-5.81-16.03-5.81-25.38s2-17.78,6-25.29c4-7.5,9.56-13.47,16.7-17.9,7.14-4.43,15.38-6.65,24.73-6.65"/>
    <path class="cls-3" d="M198.51,364.29c-8.08-5.22-17.44-7.99-27.06-7.99s-19,2.76-27.08,8c-1.65,1.07-2.71,2.81-2.92,4.78-.21,2.01.49,3.98,1.91,5.41l2.71,2.7c1.28,1.28,2.97,1.95,4.67,1.95,1.18,0,2.36-.32,3.42-.97,5.2-3.21,11.18-4.91,17.29-4.91s12.08,1.7,17.28,4.9c2.59,1.6,5.91,1.2,8.09-.97l2.71-2.71c1.43-1.43,2.12-3.4,1.91-5.41-.21-1.97-1.27-3.71-2.92-4.77"/>
    <path class="cls-1" d="M163.78,438.69c-15.09-3.57-25.63-16.9-25.63-32.4,0-6.15,1.71-12.17,4.94-17.4,1.53-2.49,1.15-5.69-.94-7.77l-2.7-2.71c-1.37-1.37-3.27-2.04-5.21-1.84-1.89.2-3.57,1.22-4.59,2.81-5.2,8.03-7.94,17.34-7.94,26.91,0,23.26,16.5,43.71,39.24,48.61.43.09.87.14,1.3.14,1.4,0,2.78-.48,3.91-1.4,1.52-1.22,2.39-3.04,2.39-4.98v-3.78c0-2.94-2.01-5.54-4.77-6.2"/>
    <path class="cls-3" d="M254.49,356.55c-27.43,0-49.75,22.32-49.75,49.75l.03.22-.03.25c-.22,15.6-11.48,29.14-26.79,32.18-2.09.41-3.6,2.26-3.6,4.38v7.59c0,1.33.58,2.59,1.6,3.45.99.84,2.29,1.21,3.56,1,24.15-3.95,41.69-24.59,41.69-49.07,0-18.36,14.94-33.3,33.3-33.3s33.3,14.94,33.3,33.3-14.94,33.3-33.3,33.3c-4.53,0-8.22,3.69-8.22,8.22s3.69,8.23,8.22,8.23c27.43,0,49.75-22.32,49.75-49.74s-22.32-49.75-49.75-49.75"/>
  </g>
</svg>